<?xml version="1.0" encoding="utf-8" standalone="no"?>
<!DOCTYPE svg PUBLIC "-//W3C//DTD SVG 1.1//EN" "http://www.w3.org/Graphics/SVG/1.1/DTD/svg11.dtd">
<svg width="3000px" height="3000px" version="1.1" xmlns="http://www.w3.org/2000/svg" xmlns:xlink="http://www.w3.org/1999/xlink">
<g id="bg">
<rect x="0" y="0" width="3000px" height="3000px" style="fill:rgb(255,255,255);"/>
</g>
<g id="ideograms">
<path d="M1500.000,200.000 A1300.000,1300.000 40.000 0,1 2067.435,330.377 L2089.259,285.392 A1350.000,1350.000 0.000 0,0 1500.000,150.000 Z" style="stroke-width:2.0;stroke:rgb(251,106,74);stroke-linecap:round;fill:none;" />
<path d="M1500.000,200.000 A1300.000,1300.000 40.000 0,1 2067.435,330.377 L2089.259,285.392 A1350.000,1350.000 0.000 0,0 1500.000,150.000 Z" style="stroke-width:2.0;stroke:rgb(251,106,74);stroke-linecap:round;fill:none;" />
<path d="M2100.015,346.752 A1300.000,1300.000 40.000 0,1 2534.650,712.918 L2574.445,682.645 A1350.000,1350.000 0.000 0,0 2123.093,302.396 Z" style="stroke-width:2.0;stroke:rgb(251,106,74);stroke-linecap:round;fill:none;" />
<path d="M2100.015,346.752 A1300.000,1300.000 40.000 0,1 2534.650,712.918 L2574.445,682.645 A1350.000,1350.000 0.000 0,0 2123.093,302.396 Z" style="stroke-width:2.0;stroke:rgb(251,106,74);stroke-linecap:round;fill:none;" />
<path d="M2556.318,742.245 A1300.000,1300.000 40.000 0,1 2755.156,1161.498 L2803.431,1148.479 A1350.000,1350.000 0.000 0,0 2596.946,713.101 Z" style="stroke-width:2.0;stroke:rgb(251,106,74);stroke-linecap:round;fill:none;" />
<path d="M2556.318,742.245 A1300.000,1300.000 40.000 0,1 2755.156,1161.498 L2803.431,1148.479 A1350.000,1350.000 0.000 0,0 2596.946,713.101 Z" style="stroke-width:2.0;stroke:rgb(251,106,74);stroke-linecap:round;fill:none;" />
<path d="M2764.156,1196.833 A1300.000,1300.000 40.000 0,1 2791.994,1644.052 L2841.686,1649.593 A1350.000,1350.000 0.000 0,0 2812.777,1185.173 Z" style="stroke-width:2.0;stroke:rgb(251,106,74);stroke-linecap:round;fill:none;" />
<path d="M2764.156,1196.833 A1300.000,1300.000 40.000 0,1 2791.994,1644.052 L2841.686,1649.593 A1350.000,1350.000 0.000 0,0 2812.777,1185.173 Z" style="stroke-width:2.0;stroke:rgb(251,106,74);stroke-linecap:round;fill:none;" />
<path d="M2787.446,1680.231 A1300.000,1300.000 40.000 0,1 2660.834,2085.205 L2705.481,2107.713 A1350.000,1350.000 0.000 0,0 2836.963,1687.163 Z" style="stroke-width:2.0;stroke:rgb(251,106,74);stroke-linecap:round;fill:none;" />
<path d="M2787.446,1680.231 A1300.000,1300.000 40.000 0,1 2660.834,2085.205 L2705.481,2107.713 A1350.000,1350.000 0.000 0,0 2836.963,1687.163 Z" style="stroke-width:2.0;stroke:rgb(251,106,74);stroke-linecap:round;fill:none;" />
<path d="M2643.964,2117.532 A1300.000,1300.000 40.000 0,1 2400.963,2437.158 L2435.616,2473.203 A1350.000,1350.000 0.000 0,0 2687.963,2141.283 Z" style="stroke-width:2.0;stroke:rgb(251,106,74);stroke-linecap:round;fill:none;" />
<path d="M2643.964,2117.532 A1300.000,1300.000 40.000 0,1 2400.963,2437.158 L2435.616,2473.203 A1350.000,1350.000 0.000 0,0 2687.963,2141.283 Z" style="stroke-width:2.0;stroke:rgb(251,106,74);stroke-linecap:round;fill:none;" />
<path d="M2374.325,2462.058 A1300.000,1300.000 40.000 0,1 2064.599,2670.995 L2086.314,2716.033 A1350.000,1350.000 0.000 0,0 2407.953,2499.060 Z" style="stroke-width:2.0;stroke:rgb(251,106,74);stroke-linecap:round;fill:none;" />
<path d="M2374.325,2462.058 A1300.000,1300.000 40.000 0,1 2064.599,2670.995 L2086.314,2716.033 A1350.000,1350.000 0.000 0,0 2407.953,2499.060 Z" style="stroke-width:2.0;stroke:rgb(251,106,74);stroke-linecap:round;fill:none;" />
<path d="M2031.535,2686.369 A1300.000,1300.000 40.000 0,1 1701.950,2784.218 L1709.717,2833.611 A1350.000,1350.000 0.000 0,0 2051.978,2731.998 Z" style="stroke-width:2.0;stroke:rgb(251,106,74);stroke-linecap:round;fill:none;" />
<path d="M2031.535,2686.369 A1300.000,1300.000 40.000 0,1 1701.950,2784.218 L1709.717,2833.611 A1350.000,1350.000 0.000 0,0 2051.978,2731.998 Z" style="stroke-width:2.0;stroke:rgb(251,106,74);stroke-linecap:round;fill:none;" />
<path d="M1665.853,2789.377 A1300.000,1300.000 40.000 0,1 1334.081,2789.368 L1327.699,2838.959 A1350.000,1350.000 0.000 0,0 1672.232,2838.968 Z" style="stroke-width:2.0;stroke:rgb(251,106,74);stroke-linecap:round;fill:none;" />
<path d="M1665.853,2789.377 A1300.000,1300.000 40.000 0,1 1334.081,2789.368 L1327.699,2838.959 A1350.000,1350.000 0.000 0,0 1672.232,2838.968 Z" style="stroke-width:2.0;stroke:rgb(251,106,74);stroke-linecap:round;fill:none;" />
<path d="M1297.984,2784.208 A1300.000,1300.000 40.000 0,1 991.787,2696.545 L972.240,2742.566 A1350.000,1350.000 0.000 0,0 1290.214,2833.600 Z" style="stroke-width:2.0;stroke:rgb(251,106,74);stroke-linecap:round;fill:none;" />
<path d="M1297.984,2784.208 A1300.000,1300.000 40.000 0,1 991.787,2696.545 L972.240,2742.566 A1350.000,1350.000 0.000 0,0 1290.214,2833.600 Z" style="stroke-width:2.0;stroke:rgb(251,106,74);stroke-linecap:round;fill:none;" />
<path d="M958.428,2681.821 A1300.000,1300.000 40.000 0,1 688.289,2515.444 L657.070,2554.499 A1350.000,1350.000 0.000 0,0 937.599,2727.275 Z" style="stroke-width:2.0;stroke:rgb(251,106,74);stroke-linecap:round;fill:none;" />
<path d="M958.428,2681.821 A1300.000,1300.000 40.000 0,1 688.289,2515.444 L657.070,2554.499 A1350.000,1350.000 0.000 0,0 937.599,2727.275 Z" style="stroke-width:2.0;stroke:rgb(251,106,74);stroke-linecap:round;fill:none;" />
<path d="M660.129,2492.279 A1300.000,1300.000 40.000 0,1 446.377,2261.497 L405.853,2290.785 A1350.000,1350.000 0.000 0,0 627.827,2530.443 Z" style="stroke-width:2.0;stroke:rgb(251,106,74);stroke-linecap:round;fill:none;" />
<path d="M660.129,2492.279 A1300.000,1300.000 40.000 0,1 446.377,2261.497 L405.853,2290.785 A1350.000,1350.000 0.000 0,0 627.827,2530.443 Z" style="stroke-width:2.0;stroke:rgb(251,106,74);stroke-linecap:round;fill:none;" />
<path d="M425.434,2231.647 A1300.000,1300.000 40.000 0,1 297.157,1993.121 L250.894,2012.087 A1350.000,1350.000 0.000 0,0 384.104,2259.788 Z" style="stroke-width:2.0;stroke:rgb(251,106,74);stroke-linecap:round;fill:none;" />
<path d="M425.434,2231.647 A1300.000,1300.000 40.000 0,1 297.157,1993.121 L250.894,2012.087 A1350.000,1350.000 0.000 0,0 384.104,2259.788 Z" style="stroke-width:2.0;stroke:rgb(251,106,74);stroke-linecap:round;fill:none;" />
<path d="M283.800,1959.192 A1300.000,1300.000 40.000 0,1 217.973,1715.421 L168.664,1723.707 A1350.000,1350.000 0.000 0,0 237.023,1976.853 Z" style="stroke-width:2.0;stroke:rgb(251,106,74);stroke-linecap:round;fill:none;" />
<path d="M283.800,1959.192 A1300.000,1300.000 40.000 0,1 217.973,1715.421 L168.664,1723.707 A1350.000,1350.000 0.000 0,0 237.023,1976.853 Z" style="stroke-width:2.0;stroke:rgb(251,106,74);stroke-linecap:round;fill:none;" />
<path d="M212.435,1679.380 A1300.000,1300.000 40.000 0,1 201.459,1438.428 L151.515,1436.060 A1350.000,1350.000 0.000 0,0 162.914,1686.280 Z" style="stroke-width:2.0;stroke:rgb(251,106,74);stroke-linecap:round;fill:none;" />
<path d="M212.435,1679.380 A1300.000,1300.000 40.000 0,1 201.459,1438.428 L151.515,1436.060 A1350.000,1350.000 0.000 0,0 162.914,1686.280 Z" style="stroke-width:2.0;stroke:rgb(251,106,74);stroke-linecap:round;fill:none;" />
<path d="M203.697,1402.033 A1300.000,1300.000 40.000 0,1 237.005,1192.033 L188.428,1180.188 A1350.000,1350.000 0.000 0,0 153.839,1398.265 Z" style="stroke-width:2.0;stroke:rgb(251,106,74);stroke-linecap:round;fill:none;" />
<path d="M203.697,1402.033 A1300.000,1300.000 40.000 0,1 237.005,1192.033 L188.428,1180.188 A1350.000,1350.000 0.000 0,0 153.839,1398.265 Z" style="stroke-width:2.0;stroke:rgb(251,106,74);stroke-linecap:round;fill:none;" />
<path d="M246.139,1156.731 A1300.000,1300.000 40.000 0,1 310.015,976.610 L264.247,956.480 A1350.000,1350.000 0.000 0,0 197.914,1143.529 Z" style="stroke-width:2.0;stroke:rgb(251,106,74);stroke-linecap:round;fill:none;" />
<path d="M246.139,1156.731 A1300.000,1300.000 40.000 0,1 310.015,976.610 L264.247,956.480 A1350.000,1350.000 0.000 0,0 197.914,1143.529 Z" style="stroke-width:2.0;stroke:rgb(251,106,74);stroke-linecap:round;fill:none;" />
<path d="M325.163,943.442 A1300.000,1300.000 40.000 0,1 415.389,783.328 L373.673,755.764 A1350.000,1350.000 0.000 0,0 279.977,922.035 Z" style="stroke-width:2.0;stroke:rgb(251,106,74);stroke-linecap:round;fill:none;" />
<path d="M325.163,943.442 A1300.000,1300.000 40.000 0,1 415.389,783.328 L373.673,755.764 A1350.000,1350.000 0.000 0,0 279.977,922.035 Z" style="stroke-width:2.0;stroke:rgb(251,106,74);stroke-linecap:round;fill:none;" />
<path d="M435.916,753.191 A1300.000,1300.000 40.000 0,1 521.889,643.671 L484.269,610.736 A1350.000,1350.000 0.000 0,0 394.989,724.467 Z" style="stroke-width:2.0;stroke:rgb(251,106,74);stroke-linecap:round;fill:none;" />
<path d="M435.916,753.191 A1300.000,1300.000 40.000 0,1 521.889,643.671 L484.269,610.736 A1350.000,1350.000 0.000 0,0 394.989,724.467 Z" style="stroke-width:2.0;stroke:rgb(251,106,74);stroke-linecap:round;fill:none;" />
<path d="M546.290,616.576 A1300.000,1300.000 40.000 0,1 653.185,513.641 L620.615,475.704 A1350.000,1350.000 0.000 0,0 509.609,582.598 Z" style="stroke-width:2.0;stroke:rgb(251,106,74);stroke-linecap:round;fill:none;" />
<path d="M546.290,616.576 A1300.000,1300.000 40.000 0,1 653.185,513.641 L620.615,475.704 A1350.000,1350.000 0.000 0,0 509.609,582.598 Z" style="stroke-width:2.0;stroke:rgb(251,106,74);stroke-linecap:round;fill:none;" />
<path d="M681.182,490.279 A1300.000,1300.000 40.000 0,1 772.252,422.789 L744.262,381.358 A1350.000,1350.000 0.000 0,0 649.689,451.443 Z" style="stroke-width:2.0;stroke:rgb(251,106,74);stroke-linecap:round;fill:none;" />
<path d="M681.182,490.279 A1300.000,1300.000 40.000 0,1 772.252,422.789 L744.262,381.358 A1350.000,1350.000 0.000 0,0 649.689,451.443 Z" style="stroke-width:2.0;stroke:rgb(251,106,74);stroke-linecap:round;fill:none;" />
<path d="M802.750,402.803 A1300.000,1300.000 40.000 0,1 907.625,342.808 L884.842,298.301 A1350.000,1350.000 0.000 0,0 775.933,360.603 Z" style="stroke-width:2.0;stroke:rgb(251,106,74);stroke-linecap:round;fill:none;" />
<path d="M802.750,402.803 A1300.000,1300.000 40.000 0,1 907.625,342.808 L884.842,298.301 A1350.000,1350.000 0.000 0,0 775.933,360.603 Z" style="stroke-width:2.0;stroke:rgb(251,106,74);stroke-linecap:round;fill:none;" />
<path d="M940.313,326.650 A1300.000,1300.000 40.000 0,1 1288.143,217.379 L1279.995,168.047 A1350.000,1350.000 0.000 0,0 918.787,281.521 Z" style="stroke-width:2.0;stroke:rgb(251,106,74);stroke-linecap:round;fill:none;" />
<path d="M940.313,326.650 A1300.000,1300.000 40.000 0,1 1288.143,217.379 L1279.995,168.047 A1350.000,1350.000 0.000 0,0 918.787,281.521 Z" style="stroke-width:2.0;stroke:rgb(251,106,74);stroke-linecap:round;fill:none;" />
<path d="M1324.200,211.942 A1300.000,1300.000 40.000 0,1 1463.540,200.511 L1462.138,150.531 A1350.000,1350.000 0.000 0,0 1317.438,162.401 Z" style="stroke-width:2.0;stroke:rgb(251,106,74);stroke-linecap:round;fill:none;" />
<path d="M1324.200,211.942 A1300.000,1300.000 40.000 0,1 1463.540,200.511 L1462.138,150.531 A1350.000,1350.000 0.000 0,0 1317.438,162.401 Z" style="stroke-width:2.0;stroke:rgb(251,106,74);stroke-linecap:round;fill:none;" />
</g>
<defs>
<pattern id="hline-sparse" width="10" height="10" patternTransform="rotate(0 0 0)" patternUnits="userSpaceOnUse"><line x1="0" y1="0" x2="10" y2="0" style="stroke:black;stroke-width:2" /></pattern>
<pattern id="checker" width="10" height="10" patternTransform="rotate(45 0 0)" patternUnits="userSpaceOnUse"><line x1="0" y1="0" x2="10" y2="0" style="stroke:black;stroke-width:2" /><line x1="0" y1="0" x2="0" y2="10" style="stroke:black;stroke-width:2" /></pattern>
<pattern id="checker" width="10" height="10" patternTransform="rotate(45 0 0)" patternUnits="userSpaceOnUse"><line x1="0" y1="0" x2="10" y2="0" style="stroke:black;stroke-width:5" /><line x1="0" y1="0" x2="0" y2="10" style="stroke:black;stroke-width:4" /></pattern>
<pattern id="hline" width="10" height="10" patternTransform="rotate(0 0 0)" patternUnits="userSpaceOnUse"><line x1="0" y1="0" x2="10" y2="0" style="stroke:black;stroke-width:5" /></pattern>
<pattern id="vline-sparse" width="10" height="10" patternTransform="rotate(0 0 0)" patternUnits="userSpaceOnUse"><line x1="0" y1="0" x2="0" y2="10" style="stroke:black;stroke-width:2" /></pattern>
<pattern id="vline" width="10" height="10" patternTransform="rotate(0 0 0)" patternUnits="userSpaceOnUse"><line x1="0" y1="0" x2="0" y2="10" style="stroke:black;stroke-width:5" /></pattern>
</defs>
</svg>
