<?xml version="1.0" encoding="utf-8" standalone="no"?>
<!DOCTYPE svg PUBLIC "-//W3C//DTD SVG 1.1//EN" "http://www.w3.org/Graphics/SVG/1.1/DTD/svg11.dtd">
<svg width="3000px" height="3000px" version="1.1" xmlns="http://www.w3.org/2000/svg" xmlns:xlink="http://www.w3.org/1999/xlink">
<g id="bg">
<rect x="0" y="0" width="3000px" height="3000px" style="fill:rgb(255,255,255);"/>
</g>
<g id="ideograms">
<path d="M1500.000,400.000 A1100.000,1100.000 40.000 0,1 2376.279,2164.932 L2455.941,2225.380 A1200.000,1200.000 0.000 0,0 1500.000,300.000 Z" style="stroke-width:2.0;stroke:rgb(0,0,0);stroke-linecap:round;fill:rgb(153,102,0);" />
<text x="2603.0" y="952.4" font-size="62.4px" font-family="CMUSansSerif-DemiCondensed" style="text-anchor:middle;fill:rgb(0,0,0);" transform="rotate(423.6,2603.0,952.4)" >1</text>
<line x1='1500.0' y1='300.0' x2='1500.0' y2='290.0' style="stroke-width:2.0;stroke:rgb(158,154,200);stroke-linecap:round;fill:none;" />
<text x="1519.5" y="285.2" font-size="52.0px" font-family="CMUSansSerif-DemiCondensed" style="text-anchor:start;fill:rgb(158,154,200);" transform="rotate(270.0,1519.5,285.2)" >5'</text>
<line x1='2455.9' y1='2225.4' x2='2463.9' y2='2231.4' style="stroke-width:2.0;stroke:rgb(158,154,200);stroke-linecap:round;fill:none;" />
<text x="2455.7" y="2250.3" font-size="52.0px" font-family="CMUSansSerif-DemiCondensed" style="text-anchor:start;fill:rgb(158,154,200);" transform="rotate(37.2,2455.7,2250.3)" >3'</text>
<path d="M1500.000,400.000 A1100.000,1100.000 40.000 0,1 2376.279,2164.932 L2455.941,2225.380 A1200.000,1200.000 0.000 0,0 1500.000,300.000 Z" style="stroke-width:2.0;stroke:rgb(0,0,0);stroke-linecap:round;fill:none;" />
<path d="M2345.810,2203.282 A1100.000,1100.000 40.000 0,1 443.426,1806.025 L347.374,1833.846 A1200.000,1200.000 0.000 0,0 2422.702,2267.217 Z" style="stroke-width:2.0;stroke:rgb(0,0,0);stroke-linecap:round;fill:rgb(102,102,0);" />
<text x="1238.8" y="2751.0" font-size="62.4px" font-family="CMUSansSerif-DemiCondensed" style="text-anchor:middle;fill:rgb(0,0,0);" transform="rotate(11.8,1238.8,2751.0)" >2</text>
<line x1='2422.7' y1='2267.2' x2='2430.4' y2='2273.6' style="stroke-width:2.0;stroke:rgb(158,154,200);stroke-linecap:round;fill:none;" />
<text x="2421.6" y="2291.7" font-size="52.0px" font-family="CMUSansSerif-DemiCondensed" style="text-anchor:start;fill:rgb(158,154,200);" transform="rotate(39.7,2421.6,2291.7)" >5'</text>
<line x1='347.4' y1='1833.8' x2='337.8' y2='1836.6' style="stroke-width:2.0;stroke:rgb(158,154,200);stroke-linecap:round;fill:none;" />
<text x="338.7" y="1857.2" font-size="52.0px" font-family="CMUSansSerif-DemiCondensed" style="text-anchor:end;fill:rgb(158,154,200);" transform="rotate(-16.2,338.7,1857.2)" >3'</text>
<path d="M2345.810,2203.282 A1100.000,1100.000 40.000 0,1 443.426,1806.025 L347.374,1833.846 A1200.000,1200.000 0.000 0,0 2422.702,2267.217 Z" style="stroke-width:2.0;stroke:rgb(0,0,0);stroke-linecap:round;fill:none;" />
<path d="M430.850,1758.686 A1100.000,1100.000 40.000 0,1 1451.031,401.091 L1446.580,301.190 A1200.000,1200.000 0.000 0,0 333.655,1782.203 Z" style="stroke-width:2.0;stroke:rgb(0,0,0);stroke-linecap:round;fill:rgb(153,153,30);" />
<text x="515.9" y="760.5" font-size="62.4px" font-family="CMUSansSerif-DemiCondensed" style="text-anchor:middle;fill:rgb(0,0,0);" transform="rotate(-53.1,515.9,760.5)" >3</text>
<line x1='333.7' y1='1782.2' x2='323.9' y2='1784.6' style="stroke-width:2.0;stroke:rgb(158,154,200);stroke-linecap:round;fill:none;" />
<text x="323.8" y="1804.6" font-size="52.0px" font-family="CMUSansSerif-DemiCondensed" style="text-anchor:end;fill:rgb(158,154,200);" transform="rotate(-13.6,323.8,1804.6)" >5'</text>
<line x1='1446.6' y1='301.2' x2='1446.1' y2='291.2' style="stroke-width:2.0;stroke:rgb(158,154,200);stroke-linecap:round;fill:none;" />
<text x="1425.9" y="287.3" font-size="52.0px" font-family="CMUSansSerif-DemiCondensed" style="text-anchor:end;fill:rgb(158,154,200);" transform="rotate(87.4,1425.9,287.3)" >3'</text>
<path d="M430.850,1758.686 A1100.000,1100.000 40.000 0,1 1451.031,401.091 L1446.580,301.190 A1200.000,1200.000 0.000 0,0 333.655,1782.203 Z" style="stroke-width:2.0;stroke:rgb(0,0,0);stroke-linecap:round;fill:none;" />
</g>
<defs>
<pattern id="hline-sparse" width="10" height="10" patternTransform="rotate(0 0 0)" patternUnits="userSpaceOnUse"><line x1="0" y1="0" x2="10" y2="0" style="stroke:black;stroke-width:2" /></pattern>
<pattern id="checker" width="10" height="10" patternTransform="rotate(45 0 0)" patternUnits="userSpaceOnUse"><line x1="0" y1="0" x2="10" y2="0" style="stroke:black;stroke-width:2" /><line x1="0" y1="0" x2="0" y2="10" style="stroke:black;stroke-width:2" /></pattern>
<pattern id="checker" width="10" height="10" patternTransform="rotate(45 0 0)" patternUnits="userSpaceOnUse"><line x1="0" y1="0" x2="10" y2="0" style="stroke:black;stroke-width:5" /><line x1="0" y1="0" x2="0" y2="10" style="stroke:black;stroke-width:4" /></pattern>
<pattern id="hline" width="10" height="10" patternTransform="rotate(0 0 0)" patternUnits="userSpaceOnUse"><line x1="0" y1="0" x2="10" y2="0" style="stroke:black;stroke-width:5" /></pattern>
<pattern id="vline-sparse" width="10" height="10" patternTransform="rotate(0 0 0)" patternUnits="userSpaceOnUse"><line x1="0" y1="0" x2="0" y2="10" style="stroke:black;stroke-width:2" /></pattern>
<pattern id="vline" width="10" height="10" patternTransform="rotate(0 0 0)" patternUnits="userSpaceOnUse"><line x1="0" y1="0" x2="0" y2="10" style="stroke:black;stroke-width:5" /></pattern>
</defs>
</svg>
